<svg width="400" height="400" viewBox="0 0 400 400" fill="none" xmlns="http://www.w3.org/2000/svg">
<g clip-path="url(#clip0)">
<rect width="400" height="400" fill="white"/>
<g clip-path="url(#clip1)">
<path d="M94.3014 190.733C95.7186 197.569 106.014 282.364 102.648 302.606C99.2811 322.848 44.3929 365.297 41.9899 366.039C39.1892 363.96 35.0666 357.147 35.0666 357.147C35.0666 357.147 75.3127 310.003 76.0633 308.111C76.8139 306.22 67.2635 197.003 67.2635 197.003L94.3014 190.733Z" fill="#1F161E"/>
<path d="M28.7538 206.183L69.8177 375.531H83.6532L69.6328 198.866L28.7538 206.183Z" fill="#AB8DE5"/>
<path d="M57.9203 109.222C52.2517 109.222 22.6819 110.191 17.3381 120.714C11.9944 131.237 17.03 179.876 20.3517 181.762C22.1441 182.775 22.6315 181.79 23.1524 183.852C23.6733 185.913 28.7538 206.183 28.7538 206.183C31.9802 206.274 79.0208 199.109 94.2902 190.733C94.2006 188.405 93.4612 182.351 93.4612 181.886C95.4889 182.724 97.9423 182.9 98.6201 181.886C104.574 172.762 95.6906 125.194 89.3218 115.622C86.6051 111.516 67.017 109.251 57.9203 109.222Z" fill="#FBDC8E"/>
<path d="M38.4498 183.104C37.0607 183.104 25.1017 191.599 26.1267 195.773C25.2865 192.421 22.6426 182.062 22.6426 182.062C23.7797 182.243 37.4584 183.104 38.4498 183.104Z" fill="#1F161E"/>
<path d="M50.5993 114.773C50.5993 116.619 65.0005 116.619 65.0005 114.773V96.0826H50.5993V114.773Z" fill="#F8CDBA"/>
<path d="M58.8669 100.506C57.7467 100.506 50.5993 103.7 50.5993 105.479V96.0826C52.3805 96.0826 58.8669 100.506 58.8669 100.506Z" fill="#1F161E"/>
<path d="M60.833 101.871C53.096 101.871 46.8239 95.5291 46.8239 87.7062C46.8239 79.8832 53.096 73.5415 60.833 73.5415C68.5701 73.5415 74.8421 79.8832 74.8421 87.7062C74.8421 95.5291 68.5701 101.871 60.833 101.871Z" fill="#F8CDBA"/>
<path d="M65.5718 67C72.764 67 77.2508 71.5649 77.2508 77.4154C77.2508 82.2804 76.0801 85.0329 74.7077 85.7295C73.8395 81.0061 71.9518 78.8199 70.389 77.8798C69.1791 78.8199 67.0954 81.0967 64.3171 81.799C61.5388 82.5013 54.3074 82.3654 48.4651 86.6584C46.5607 84.9027 44.6506 82.6202 44.6506 79.93C44.6506 77.2398 45.8269 73.8643 52.7502 71.916C57.3154 70.6304 57.9483 67 65.5718 67Z" fill="#1F161E"/>
<path d="M73.9235 91.9142C72.5685 91.9142 71.4701 91.3361 71.4701 90.6229C71.4701 89.9098 72.5685 89.3316 73.9235 89.3316C75.2785 89.3316 76.3769 89.9098 76.3769 90.6229C76.3769 91.3361 75.2785 91.9142 73.9235 91.9142Z" fill="#FA9E9F"/>
<path d="M58.4916 91.9142C57.1367 91.9142 56.0382 91.3361 56.0382 90.6229C56.0382 89.9098 57.1367 89.3316 58.4916 89.3316C59.8466 89.3316 60.9451 89.9098 60.9451 90.6229C60.9451 91.3361 59.8466 91.9142 58.4916 91.9142Z" fill="#FA9E9F"/>
<path d="M67.93 87.9553C68.3893 88.618 70.7307 91.3988 68.2605 92.5202" stroke="#1F161E" stroke-miterlimit="10" stroke-linecap="round"/>
<path d="M63.3145 95.7598C62.5807 95.7598 61.438 94.831 60.8387 93.9984" stroke="#1F161E" stroke-miterlimit="10" stroke-linecap="round"/>
<path d="M47.8826 92.6108C46.0945 92.6108 44.645 91.1452 44.645 89.3373C44.645 87.5293 46.0945 86.0637 47.8826 86.0637C49.6707 86.0637 51.1202 87.5293 51.1202 89.3373C51.1202 91.1452 49.6707 92.6108 47.8826 92.6108Z" fill="#F8CDBA"/>
<path d="M38.1249 137.093C38.377 140.219 39.3629 155.669 38.9932 157.703C43.6927 159.356 86.7451 179.995 94.167 182.243" stroke="#1F161E" stroke-miterlimit="10" stroke-linecap="round"/>
<path d="M88.1063 132.216C89.0921 135.717 92.4306 151.603 90.0836 158.983" stroke="#1F161E" stroke-miterlimit="10" stroke-linecap="round"/>
<path d="M77.1219 175.028C74.8814 176.619 53.4 186.23 23.7125 182.606" stroke="#1F161E" stroke-miterlimit="10" stroke-linecap="round"/>
<path d="M79.172 158.983C77.7325 159.215 82.4265 155.426 85.0871 156.836C87.7478 158.246 91.3327 164.629 90.5989 166.113C90.5 166.381 90.3429 166.624 90.1391 166.823C89.9353 167.021 89.69 167.171 89.4213 167.262C89.1526 167.352 88.8672 167.38 88.5863 167.344C88.3054 167.308 88.0361 167.209 87.7982 167.053C87.0756 166.578 81.6983 158.575 79.172 158.983Z" fill="#F8CDBA"/>
<path d="M35.5427 357.871C34.7753 358.438 27.9696 363.093 27.9136 366.027C27.8575 368.961 34.2375 378.685 35.5427 378.963C36.8478 379.24 37.7496 378.142 37.7496 376.176C37.7496 374.211 35.3186 370.768 35.6435 369.238C35.9684 367.709 39.1108 364.911 40.724 364.86" fill="#1F161E"/>
<path d="M71.1284 375.531C71.1284 376.879 70.3554 385.34 71.907 386.127C73.4586 386.914 90.5093 387.379 91.2823 386.597C92.0553 385.816 92.5258 384.168 91.8424 383.698C91.159 383.227 84.5606 381.891 83.67 381.268C82.7793 380.645 81.5358 377.303 81.9895 375.531" fill="#1F161E"/>
</g>
<g clip-path="url(#clip2)">
<path d="M264.43 225.42H171.92L188.68 167.79C189.097 166.398 189.954 165.18 191.122 164.316C192.291 163.452 193.707 162.991 195.16 163H273.66C274.69 162.985 275.71 163.211 276.638 163.66C277.566 164.108 278.376 164.766 279.005 165.583C279.634 166.399 280.064 167.351 280.261 168.362C280.458 169.374 280.417 170.417 280.14 171.41L264.43 225.42Z" fill="black"/>
<path d="M229.53 199.87C232.656 199.87 235.19 197.336 235.19 194.21C235.19 191.084 232.656 188.55 229.53 188.55C226.404 188.55 223.87 191.084 223.87 194.21C223.87 197.336 226.404 199.87 229.53 199.87Z" fill="white"/>
<path d="M182.91 221.38H118V225.43H182.91V221.38Z" fill="black"/>
</g>
<g clip-path="url(#clip3)">
<path d="M418.164 237.835C418.699 235.797 417.484 233.711 415.451 233.175C413.419 232.64 411.338 233.857 410.803 235.895L372.748 380.991C372.213 383.029 373.428 385.115 375.46 385.651C377.493 386.186 379.574 384.969 380.109 382.931L418.164 237.835Z" fill="#D8D8D8"/>
<path d="M204.05 237.518C204.576 235.474 203.349 233.391 201.31 232.864C199.271 232.337 197.193 233.567 196.667 235.611L159.25 381.137C158.724 383.181 159.951 385.264 161.99 385.791C164.029 386.318 166.107 385.088 166.633 383.044L204.05 237.518Z" fill="#969696"/>
<path d="M241.24 382.368C241.766 384.412 243.844 385.642 245.883 385.115C247.922 384.588 249.149 382.505 248.623 380.461L211.206 234.935C210.68 232.891 208.602 231.661 206.563 232.188C204.524 232.715 203.297 234.798 203.823 236.842L241.24 382.368Z" fill="#969696"/>
<path d="M494.114 226H126.057C124.197 226 122.69 227.511 122.69 229.375V233.913C122.69 235.777 124.197 237.288 126.057 237.288H494.114C495.974 237.288 497.482 235.777 497.482 233.913V229.375C497.482 227.511 495.974 226 494.114 226Z" fill="#D8D8D8"/>
<path d="M149.385 237.841C149.919 235.803 148.704 233.717 146.672 233.181C144.639 232.646 142.558 233.863 142.023 235.901L103.968 380.997C103.433 383.035 104.648 385.121 106.681 385.657C108.713 386.192 110.794 384.975 111.329 382.937L149.385 237.841Z" fill="#D8D8D8"/>
<path d="M187.168 382.927C187.702 384.964 189.783 386.182 191.816 385.646C193.849 385.11 195.064 383.024 194.529 380.987L156.473 235.89C155.939 233.853 153.858 232.635 151.825 233.171C149.792 233.706 148.578 235.793 149.112 237.83L187.168 382.927Z" fill="#D8D8D8"/>
</g>
<path d="M318.53 199.287V198.888L317.529 197.693L315.235 195.004L312.774 192.159C312.774 192.159 310.406 190.594 309.797 190.323C307.578 189.343 305.393 188.594 302.782 188.594C301.177 188.594 295.175 188.825 295.163 189.789C295.163 191.219 303.566 196.633 309.73 199.263C312.416 199.287 318.53 199.287 318.53 199.287Z" fill="#1F161E"/>
<path d="M317.258 199.287C308.704 193.012 291.247 158.709 295.722 146C305.255 150.641 315.715 166.645 320.648 180.159C320.909 181.038 321.118 181.931 321.274 182.833L323.276 191.598L323.776 199.287H317.258Z" fill="#FBDC8E"/>
<path d="M323.096 199.287C320.21 197.048 319.289 190.418 319.264 187.944C319.218 183.327 319.96 179.924 324.093 174.845C328.226 169.765 327.112 161.335 332.617 155.653C338.122 149.972 341.742 148.39 348.256 148.39C354.771 148.39 356.835 158.478 356.818 161.016C356.743 171.247 349.991 172.693 345.879 177.582C342.889 181.127 342.656 184.028 341.751 185.685C336.888 194.606 332.951 197.976 330.032 199.287" fill="#73E5E2"/>
<path d="M324.673 198.546C324.756 181.084 344.019 154.857 348.135 150.924" stroke="white" stroke-width="0.4" stroke-linecap="round" stroke-linejoin="round"/>
<path d="M325.728 190.622C323.597 188.402 321.657 182.112 321.949 180.478" stroke="white" stroke-width="0.4" stroke-linecap="round" stroke-linejoin="round"/>
<path d="M320.269 197.793C317.249 192.669 302.924 167.745 297.565 149.382" stroke="white" stroke-width="0.4" stroke-linecap="round" stroke-linejoin="round"/>
<path d="M330.032 199.287H338.998L331.491 226H311.419L304.033 199.287H330.032Z" fill="#B37361"/>
<path d="M298.078 190.335C302.453 190.622 307.958 190.813 311.861 193.343" stroke="white" stroke-width="0.4" stroke-linecap="round" stroke-linejoin="round"/>
<path d="M-17 407L174.245 68H225.277L419 407H-17Z" fill="#FBDC8E" fill-opacity="0.25"/>
<path d="M203.553 36.3653C203.553 34.1767 201.74 32.4026 199.503 32.4026C197.267 32.4026 195.453 34.1767 195.453 36.3653V50.0437C195.453 52.2323 197.267 54.0064 199.503 54.0064C201.74 54.0064 203.553 52.2323 203.553 50.0437V36.3653Z" fill="black"/>
<path d="M199.503 77C203.991 77 207.628 73.4405 207.628 69.0496C207.628 64.6587 203.991 61.0992 199.503 61.0992C195.016 61.0992 191.378 64.6587 191.378 69.0496C191.378 73.4405 195.016 77 199.503 77Z" fill="#FBDC8E"/>
<path d="M199.503 45.0794C196.286 45.0786 193.1 45.698 190.127 46.9022C187.154 48.1065 184.453 49.872 182.177 52.0979C179.902 54.3238 178.097 56.9665 176.865 59.8752C175.634 62.7838 175 65.9013 175 69.0496H224C224 65.9018 223.366 62.7848 222.135 59.8766C220.904 56.9684 219.1 54.326 216.825 52.1001C214.55 49.8743 211.85 48.1086 208.878 46.904C205.906 45.6994 202.72 45.0794 199.503 45.0794V45.0794Z" fill="#AB8DE5"/>
<path d="M199.503 36.9662V-50" stroke="black" stroke-width="2" stroke-linecap="round" stroke-linejoin="round"/>
<path d="M116.647 148L132.293 134.697H116.334L116.647 148Z" fill="#73E5E2"/>
<path d="M200.429 136.203H122.571C110.658 136.203 101 126.908 101 115.441V105.762C101 94.2956 110.658 85 122.571 85L200.429 85C212.342 85 222 94.2956 222 105.762V115.441C222 126.908 212.342 136.203 200.429 136.203Z" fill="#73E5E2"/>
<path d="M124.822 115H130.874V113.352H126.821V105.545H124.822V115ZM135.365 115.138C137.516 115.138 138.855 113.666 138.855 111.482C138.855 109.285 137.516 107.817 135.365 107.817C133.213 107.817 131.875 109.285 131.875 111.482C131.875 113.666 133.213 115.138 135.365 115.138ZM135.374 113.615C134.381 113.615 133.873 112.706 133.873 111.468C133.873 110.231 134.381 109.317 135.374 109.317C136.348 109.317 136.856 110.231 136.856 111.468C136.856 112.706 136.348 113.615 135.374 113.615ZM142.155 115.134C143.203 115.134 143.882 114.677 144.228 114.017H144.284V115H146.149V110.217C146.149 108.528 144.718 107.817 143.139 107.817C141.44 107.817 140.323 108.629 140.05 109.922L141.869 110.07C142.003 109.599 142.423 109.252 143.13 109.252C143.799 109.252 144.182 109.589 144.182 110.171V110.199C144.182 110.656 143.697 110.716 142.465 110.836C141.061 110.965 139.801 111.436 139.801 113.02C139.801 114.423 140.803 115.134 142.155 115.134ZM142.719 113.777C142.114 113.777 141.68 113.495 141.68 112.955C141.68 112.401 142.137 112.129 142.829 112.032C143.259 111.972 143.96 111.87 144.196 111.713V112.466C144.196 113.209 143.582 113.777 142.719 113.777ZM150.287 115.115C151.432 115.115 152.028 114.455 152.3 113.864H152.383V115H154.322V105.545H152.36V109.1H152.3C152.037 108.523 151.469 107.817 150.283 107.817C148.727 107.817 147.411 109.026 147.411 111.464C147.411 113.837 148.672 115.115 150.287 115.115ZM150.911 113.55C149.946 113.55 149.419 112.692 149.419 111.455C149.419 110.227 149.937 109.382 150.911 109.382C151.866 109.382 152.402 110.19 152.402 111.455C152.402 112.719 151.857 113.55 150.911 113.55ZM155.939 115H157.906V107.909H155.939V115ZM156.927 106.995C157.513 106.995 157.993 106.547 157.993 105.998C157.993 105.453 157.513 105.005 156.927 105.005C156.345 105.005 155.865 105.453 155.865 105.998C155.865 106.547 156.345 106.995 156.927 106.995ZM161.448 110.901C161.452 109.987 161.997 109.451 162.791 109.451C163.581 109.451 164.056 109.968 164.051 110.836V115H166.018V110.485C166.018 108.832 165.049 107.817 163.571 107.817C162.519 107.817 161.757 108.334 161.438 109.16H161.355V107.909H159.481V115H161.448V110.901ZM170.763 117.761C172.789 117.761 174.23 116.837 174.23 115.069V107.909H172.277V109.1H172.203C171.94 108.523 171.363 107.817 170.176 107.817C168.621 107.817 167.305 109.026 167.305 111.441C167.305 113.8 168.584 114.898 170.181 114.898C171.312 114.898 171.944 114.331 172.203 113.744H172.286V115.042C172.286 115.969 171.663 116.348 170.809 116.348C169.941 116.348 169.502 115.969 169.341 115.586L167.522 115.831C167.757 116.902 168.851 117.761 170.763 117.761ZM170.804 113.421C169.839 113.421 169.313 112.655 169.313 111.431C169.313 110.227 169.83 109.382 170.804 109.382C171.76 109.382 172.295 110.19 172.295 111.431C172.295 112.683 171.751 113.421 170.804 113.421ZM176.944 115.12C177.535 115.12 178.047 114.626 178.052 114.012C178.047 113.407 177.535 112.913 176.944 112.913C176.335 112.913 175.831 113.407 175.836 114.012C175.831 114.626 176.335 115.12 176.944 115.12ZM180.816 115.12C181.407 115.12 181.919 114.626 181.924 114.012C181.919 113.407 181.407 112.913 180.816 112.913C180.207 112.913 179.704 113.407 179.708 114.012C179.704 114.626 180.207 115.12 180.816 115.12ZM184.688 115.12C185.279 115.12 185.792 114.626 185.796 114.012C185.792 113.407 185.279 112.913 184.688 112.913C184.079 112.913 183.576 113.407 183.58 114.012C183.576 114.626 184.079 115.12 184.688 115.12ZM188.56 115.12C189.151 115.12 189.664 114.626 189.668 114.012C189.664 113.407 189.151 112.913 188.56 112.913C187.951 112.913 187.448 113.407 187.452 114.012C187.448 114.626 187.951 115.12 188.56 115.12ZM192.432 115.12C193.023 115.12 193.536 114.626 193.54 114.012C193.536 113.407 193.023 112.913 192.432 112.913C191.823 112.913 191.32 113.407 191.324 114.012C191.32 114.626 191.823 115.12 192.432 115.12Z" fill="white"/>
</g>
<defs>
<clipPath id="clip0">
<rect width="400" height="400" fill="white"/>
</clipPath>
<clipPath id="clip1">
<rect width="88.32" height="320" fill="white" transform="matrix(-1 0 0 1 103.32 67)"/>
</clipPath>
<clipPath id="clip2">
<rect width="162.4" height="62.42" fill="white" transform="translate(118 163)"/>
</clipPath>
<clipPath id="clip3">
<rect width="555.3" height="214.45" fill="white" transform="translate(-39 171)"/>
</clipPath>
</defs>
</svg>
