<svg width="320" height="283" viewBox="0 0 320 283" fill="none" xmlns="http://www.w3.org/2000/svg">
<path d="M22.4538 272H25.9904V265.09H33.1697V272H36.6982V255.273H33.1697V262.174H25.9904V255.273H22.4538V272ZM45.266 272.245C48.3697 272.245 50.4606 270.734 50.9506 268.406L47.7326 268.194C47.3814 269.15 46.483 269.648 45.3232 269.648C43.5835 269.648 42.4808 268.496 42.4808 266.626V266.618H51.0241V265.662C51.0241 261.398 48.4432 259.291 45.1271 259.291C41.4354 259.291 39.0423 261.913 39.0423 265.784C39.0423 269.762 41.4027 272.245 45.266 272.245ZM42.4808 264.461C42.5543 263.032 43.6406 261.888 45.1843 261.888C46.6953 261.888 47.7408 262.967 47.7489 264.461H42.4808ZM56.7741 255.273H53.2947V272H56.7741V255.273ZM59.5613 276.705H63.0407V269.991H63.1469C63.6288 271.036 64.6824 272.204 66.708 272.204C69.5667 272.204 71.7964 269.942 71.7964 265.744C71.7964 261.431 69.4687 259.291 66.7162 259.291C64.6171 259.291 63.6125 260.541 63.1469 261.562H62.9917V259.455H59.5613V276.705ZM62.9672 265.727C62.9672 263.489 63.9147 262.06 65.6054 262.06C67.3287 262.06 68.2435 263.555 68.2435 265.727C68.2435 267.916 67.3124 269.435 65.6054 269.435C63.931 269.435 62.9672 267.965 62.9672 265.727ZM82.3878 272L83.6293 268.186H89.6651L90.9066 272H94.6964L88.93 255.273H84.3725L78.598 272H82.3878ZM84.5277 265.425L86.5859 259.095H86.7166L88.7749 265.425H84.5277ZM100.124 264.747C100.132 263.13 101.096 262.183 102.501 262.183C103.897 262.183 104.738 263.097 104.73 264.633V272H108.21V264.012C108.21 261.088 106.494 259.291 103.881 259.291C102.019 259.291 100.671 260.206 100.107 261.668H99.9604V259.455H96.6444V272H100.124V264.747ZM115.575 272.204C117.6 272.204 118.654 271.036 119.136 269.991H119.283V272H122.713V255.273H119.242V261.562H119.136C118.67 260.541 117.666 259.291 115.567 259.291C112.814 259.291 110.486 261.431 110.486 265.744C110.486 269.942 112.716 272.204 115.575 272.204ZM116.677 269.435C114.97 269.435 114.039 267.916 114.039 265.727C114.039 263.555 114.954 262.06 116.677 262.06C118.368 262.06 119.316 263.489 119.316 265.727C119.316 267.965 118.352 269.435 116.677 269.435ZM125.574 272H129.053V264.902C129.053 263.359 130.181 262.297 131.716 262.297C132.198 262.297 132.86 262.379 133.186 262.485V259.397C132.876 259.324 132.443 259.275 132.092 259.275C130.687 259.275 129.535 260.092 129.078 261.643H128.947V259.455H125.574V272ZM134.985 272H138.465V259.455H134.985V272ZM136.733 257.837C137.77 257.837 138.62 257.045 138.62 256.073C138.62 255.109 137.77 254.317 136.733 254.317C135.704 254.317 134.854 255.109 134.854 256.073C134.854 257.045 135.704 257.837 136.733 257.837ZM144.731 255.273H141.252V272H144.731V255.273ZM152.907 272H156.444V266.07H159.025L162.194 272H166.098L162.545 265.499C164.448 264.682 165.501 263.024 165.501 260.737C165.501 257.413 163.304 255.273 159.506 255.273H152.907V272ZM156.444 263.228V258.164H158.828C160.87 258.164 161.859 259.071 161.859 260.737C161.859 262.395 160.87 263.228 158.845 263.228H156.444ZM173.451 272.245C176.554 272.245 178.645 270.734 179.135 268.406L175.917 268.194C175.566 269.15 174.668 269.648 173.508 269.648C171.768 269.648 170.665 268.496 170.665 266.626V266.618H179.209V265.662C179.209 261.398 176.628 259.291 173.312 259.291C169.62 259.291 167.227 261.913 167.227 265.784C167.227 269.762 169.587 272.245 173.451 272.245ZM170.665 264.461C170.739 263.032 171.825 261.888 173.369 261.888C174.88 261.888 175.925 262.967 175.934 264.461H170.665ZM185.057 272.237C186.911 272.237 188.111 271.428 188.724 270.26H188.822V272H192.122V263.538C192.122 260.549 189.59 259.291 186.796 259.291C183.791 259.291 181.814 260.729 181.332 263.016L184.55 263.277C184.787 262.444 185.53 261.831 186.78 261.831C187.964 261.831 188.642 262.428 188.642 263.457V263.506C188.642 264.314 187.785 264.42 185.604 264.633C183.121 264.862 180.891 265.695 180.891 268.496C180.891 270.979 182.664 272.237 185.057 272.237ZM186.053 269.836C184.983 269.836 184.215 269.337 184.215 268.382C184.215 267.402 185.024 266.92 186.249 266.748C187.009 266.642 188.25 266.462 188.667 266.185V267.516C188.667 268.831 187.581 269.836 186.053 269.836ZM200.489 272.245C203.83 272.245 205.929 270.285 206.092 267.402H202.809C202.605 268.741 201.723 269.493 200.53 269.493C198.905 269.493 197.851 268.129 197.851 265.727C197.851 263.359 198.913 262.003 200.53 262.003C201.804 262.003 202.621 262.844 202.809 264.094H206.092C205.945 261.194 203.748 259.291 200.473 259.291C196.667 259.291 194.315 261.929 194.315 265.776C194.315 269.591 196.626 272.245 200.489 272.245ZM211.8 264.747C211.808 263.13 212.796 262.183 214.217 262.183C215.63 262.183 216.463 263.089 216.455 264.633V272H219.934V264.012C219.943 261.072 218.211 259.291 215.597 259.291C213.694 259.291 212.42 260.19 211.849 261.668H211.702V255.273H208.32V272H211.8V264.747ZM228.061 255.273V272H231.492V261.072H231.631L235.959 271.918H238.295L242.624 261.113H242.763V272H246.193V255.273H241.832L237.225 266.511H237.029L232.423 255.273H228.061ZM254.71 272.245C258.516 272.245 260.885 269.64 260.885 265.776C260.885 261.888 258.516 259.291 254.71 259.291C250.904 259.291 248.535 261.888 248.535 265.776C248.535 269.64 250.904 272.245 254.71 272.245ZM254.726 269.55C252.97 269.55 252.072 267.941 252.072 265.752C252.072 263.563 252.97 261.946 254.726 261.946C256.45 261.946 257.348 263.563 257.348 265.752C257.348 267.941 256.45 269.55 254.726 269.55ZM263.147 272H266.627V264.902C266.627 263.359 267.754 262.297 269.289 262.297C269.771 262.297 270.433 262.379 270.759 262.485V259.397C270.449 259.324 270.016 259.275 269.665 259.275C268.26 259.275 267.109 260.092 266.651 261.643H266.521V259.455H263.147V272ZM277.692 272.245C280.795 272.245 282.886 270.734 283.376 268.406L280.158 268.194C279.807 269.15 278.909 269.648 277.749 269.648C276.009 269.648 274.907 268.496 274.907 266.626V266.618H283.45V265.662C283.45 261.398 280.869 259.291 277.553 259.291C273.861 259.291 271.468 261.913 271.468 265.784C271.468 269.762 273.828 272.245 277.692 272.245ZM274.907 264.461C274.98 263.032 276.066 261.888 277.61 261.888C279.121 261.888 280.167 262.967 280.175 264.461H274.907Z" fill="#232B2B"/>
<g clip-path="url(#clip0)" filter="url(#filter0_d)">
<path d="M74.313 225C74.313 225 91.2446 198.895 147.038 189.416C202.832 179.936 216.44 136.2 216.44 136.2C216.44 136.2 229.133 94.8547 253.325 91.9162C277.518 88.9777 224.793 59.3123 205.728 69.1041C186.662 78.8961 176.233 85.1566 176.233 85.1566C176.233 85.1566 167.629 65.9568 150.485 61.3631C133.341 56.7694 69.3531 29.5843 63.8582 25.8936C58.3632 22.2027 60.3498 31.1386 60.3498 31.1386C60.3498 31.1386 63.0452 67.225 81.4824 85.6188C99.9196 104.013 124.41 131.726 124.41 131.726C124.41 131.726 129.738 136.175 130.761 142.905C131.784 149.635 131.207 151.356 131.207 151.356C131.207 151.356 140.975 146.73 137.924 135.342C134.872 123.953 128.172 109.425 109.914 91.1667C91.6556 72.9087 76.8004 49.9688 78.8595 48.78C80.9186 47.5912 108.628 64.1124 111.282 64.4942C113.935 64.8757 145.198 74.7866 149.222 77.3771C153.246 79.9676 161.474 84.0391 162.633 96.4557C163.792 108.872 163.364 113.289 163.364 113.289C163.364 113.289 186.174 92.9051 193.012 88.9573C199.85 85.0094 209.074 80.6307 215.702 80.8146C222.33 80.9988 230.479 86.2077 230.479 86.2077C230.479 86.2077 216.554 100.774 213.026 109.234C209.498 117.694 198.081 142.138 185.799 151.244C173.517 160.35 156.584 170.653 132.751 177.039C108.918 183.425 83.1179 202.927 83.1179 202.927C83.1179 202.927 74.3037 210.423 73.1576 216.966C72.0115 223.509 74.3133 225 74.3133 225H74.313Z" fill="url(#paint0_linear)"/>
</g>
<defs>
<filter id="filter0_d" x="54" y="19" width="215.558" height="216" filterUnits="userSpaceOnUse" color-interpolation-filters="sRGB">
<feFlood flood-opacity="0" result="BackgroundImageFix"/>
<feColorMatrix in="SourceAlpha" type="matrix" values="0 0 0 0 0 0 0 0 0 0 0 0 0 0 0 0 0 0 127 0"/>
<feOffset dx="2" dy="2"/>
<feGaussianBlur stdDeviation="4"/>
<feColorMatrix type="matrix" values="0 0 0 0 0 0 0 0 0 0 0 0 0 0 0 0 0 0 0.1 0"/>
<feBlend mode="normal" in2="BackgroundImageFix" result="effect1_dropShadow"/>
<feBlend mode="normal" in="SourceGraphic" in2="effect1_dropShadow" result="shape"/>
</filter>
<linearGradient id="paint0_linear" x1="90.0531" y1="94.9448" x2="295.098" y2="229.024" gradientUnits="userSpaceOnUse">
<stop stop-color="#0093E9"/>
<stop offset="1" stop-color="#80D0C7" stop-opacity="0"/>
</linearGradient>
<clipPath id="clip0">
<rect width="199.558" height="200" fill="white" transform="translate(60 25)"/>
</clipPath>
</defs>
</svg>
