<svg width="320" height="283" viewBox="0 0 320 283" fill="none" xmlns="http://www.w3.org/2000/svg">
<path d="M148.839 170.681C150.096 170.681 151.114 169.663 151.114 168.406C151.114 167.149 150.096 166.131 148.839 166.131C147.583 166.131 146.564 167.149 146.564 168.406C146.564 169.663 147.583 170.681 148.839 170.681Z" fill="white" stroke="#969696" stroke-width="1.14" stroke-linecap="round" stroke-linejoin="round"/>
<path d="M128.172 181.383H104.48V219.217H128.172V181.383Z" fill="#E8E8E8"/>
<path d="M160.679 168.406H136.986V219.217H160.679V168.406Z" fill="#E8E8E8"/>
<path d="M193.185 134.905H169.493V219.217H193.185V134.905Z" fill="#E8E8E8"/>
<path d="M225.692 110.02H202V219.217H225.692V110.02Z" fill="#E8E8E8"/>
<path d="M92.3542 213.535L116.298 181.24L148.839 168.699L181.346 134.905L213.887 110.02L235.052 63.7057" stroke="#969696" stroke-width="2.31" stroke-linecap="round" stroke-linejoin="round"/>
<path d="M235.052 63.7057L230.243 47.9292" stroke="#1F161E" stroke-miterlimit="10" stroke-linecap="round"/>
<path d="M226.802 61.4646C233.149 61.4646 238.294 60.2294 238.294 58.7057C238.294 57.182 233.149 55.9469 226.802 55.9469C220.456 55.9469 215.311 57.182 215.311 58.7057C215.311 60.2294 220.456 61.4646 226.802 61.4646Z" fill="#F8CDBA"/>
<path d="M145.542 226.757C145.542 227.766 145.202 233.685 146.046 234.687C147.579 236.499 160.106 235.77 160.699 235.191C161.292 234.612 161.653 233.386 161.128 233.025C160.604 232.663 155.638 231.621 154.997 231.144C154.357 230.668 153.417 228.181 153.785 226.846" fill="#1F161E"/>
<path d="M167.538 210.62C168.342 211.213 173.274 214.516 173.56 215.797C174.084 218.113 165.958 227.67 165.14 227.793C164.323 227.916 163.097 227.473 163.151 226.839C163.206 226.206 165.338 221.608 165.358 220.783C165.379 219.959 163.948 217.732 162.634 217.221" fill="#1F161E"/>
<path d="M117.811 103.154C117.811 103.154 110.202 168.338 111.68 171.996C112.518 174.04 162.715 217.507 162.715 217.507L168.056 210.49L136.448 173.358L129.194 104.285C127.034 102.589 124.228 100.954 117.811 103.154Z" fill="#1F161E"/>
<path d="M154.841 104.537V227.153H143.669L123.281 103.856C123.281 103.856 141.516 96.8937 154.841 104.537Z" fill="#73E5E2"/>
<path d="M136.196 46.5463C162.913 46.5463 219.732 55.9537 221.619 56.0831V66.0763C221.619 66.0763 165.154 69.6935 159.507 70.1635C159.071 74.6526 156.448 103.542 154.841 104.557C153.233 105.572 118.969 104.189 117.811 103.195C117.606 105.504 115.951 119.802 115.951 119.802C106.932 114.557 95.9918 88.2153 95.9918 85.1975C95.9918 68.6921 111.189 50.3678 112.804 49.4618C114.418 48.5559 125.787 46.5463 136.196 46.5463Z" fill="#55B79D"/>
<path d="M140.188 48.7534C140.188 50.4768 130.706 50.6063 130.706 48.7534V37.2275H140.188V48.7534Z" fill="#F8CDBA"/>
<path d="M130.706 44.1144C130.706 43.0858 133.049 39.5504 134.861 40.1499C132.627 39.3597 131.523 36.6757 130.706 37.2275V44.1144Z" fill="black"/>
<path d="M117.811 103.154C117.416 100.497 115.917 78.2766 116.912 70.906" stroke="#1F161E" stroke-width="0.62" stroke-miterlimit="10" stroke-linecap="round"/>
<path d="M139.657 41.1172C146.459 41.1172 151.973 35.6031 151.973 28.8011C151.973 21.9991 146.459 16.485 139.657 16.485C132.855 16.485 127.341 21.9991 127.341 28.8011C127.341 35.6031 132.855 41.1172 139.657 41.1172Z" fill="#F8CDBA"/>
<path d="M152.109 31.5259C153.245 31.5259 154.166 31.0471 154.166 30.4564C154.166 29.8657 153.245 29.3869 152.109 29.3869C150.973 29.3869 150.052 29.8657 150.052 30.4564C150.052 31.0471 150.973 31.5259 152.109 31.5259Z" fill="#FA9E9F"/>
<path d="M139.193 31.5259C140.33 31.5259 141.251 31.0471 141.251 30.4564C141.251 29.8657 140.33 29.3869 139.193 29.3869C138.057 29.3869 137.136 29.8657 137.136 30.4564C137.136 31.0471 138.057 31.5259 139.193 31.5259Z" fill="#FA9E9F"/>
<path d="M147.095 28.2357C147.477 28.7807 149.452 31.0831 147.368 32.0163" stroke="#1F161E" stroke-width="0.69" stroke-miterlimit="10" stroke-linecap="round"/>
<path d="M143.226 34.7411C142.613 34.7411 141.659 33.9714 141.183 33.2834" stroke="#1F161E" stroke-width="0.69" stroke-miterlimit="10" stroke-linecap="round"/>
<path d="M127.886 21.6213C127.886 17.3501 133.846 14.1621 137.995 14.1621C143.383 14.2496 148.744 14.9466 153.976 16.2398C156.203 17.0163 156.557 19.3869 156.557 20.1839C156.557 23.5082 155.345 25.579 151.68 26.1104C151.427 24.9364 150.991 23.8098 150.386 22.7725C149.365 22.3787 148.238 22.3594 147.204 22.718C146.271 23.045 138.451 26.7234 132.674 26.7234C131.898 27.8065 130.209 34.4346 130.706 37.2275C129.01 37.3229 125.89 31.812 125.733 28.9237C125.697 27.9356 125.892 26.9528 126.304 26.0538C126.716 25.1548 127.332 24.3647 128.104 23.7466C128.042 23.1608 127.886 21.9619 127.886 21.6213Z" fill="black"/>
<path d="M132.15 32.0981C133.647 32.0981 134.861 30.8843 134.861 29.3869C134.861 27.8896 133.647 26.6758 132.15 26.6758C130.653 26.6758 129.439 27.8896 129.439 29.3869C129.439 30.8843 130.653 32.0981 132.15 32.0981Z" fill="#F8CDBA"/>
<path d="M159.507 70.1635C158.546 70.1635 150.14 70.1635 150.14 70.1635C150.14 70.1635 158.867 77.3229 158.206 83.2834C158.546 79.9796 159.507 70.1635 159.507 70.1635Z" fill="black"/>
<path d="M116.326 183.658C117.582 183.658 118.601 182.639 118.601 181.383C118.601 180.126 117.582 179.108 116.326 179.108C115.069 179.108 114.05 180.126 114.05 181.383C114.05 182.639 115.069 183.658 116.326 183.658Z" fill="white" stroke="#969696" stroke-width="1.14" stroke-linecap="round" stroke-linejoin="round"/>
<path d="M181.346 137.18C182.603 137.18 183.621 136.161 183.621 134.905C183.621 133.648 182.603 132.629 181.346 132.629C180.09 132.629 179.071 133.648 179.071 134.905C179.071 136.161 180.09 137.18 181.346 137.18Z" fill="white" stroke="#969696" stroke-width="1.14" stroke-linecap="round" stroke-linejoin="round"/>
<path d="M213.853 112.296C215.109 112.296 216.128 111.277 216.128 110.02C216.128 108.764 215.109 107.745 213.853 107.745C212.596 107.745 211.578 108.764 211.578 110.02C211.578 111.277 212.596 112.296 213.853 112.296Z" fill="white" stroke="#969696" stroke-width="1.14" stroke-linecap="round" stroke-linejoin="round"/>
<path d="M1.45384 272H4.99041V267.246L6.73011 265.123L11.3121 272H15.543L9.26207 262.762L15.4695 255.273H11.2305L5.21094 262.648H4.99041V255.273H1.45384V272ZM20.7253 264.747C20.7335 263.13 21.6973 262.183 23.1021 262.183C24.4988 262.183 25.34 263.097 25.3319 264.633V272H28.8113V264.012C28.8113 261.088 27.0961 259.291 24.4824 259.291C22.6202 259.291 21.2725 260.206 20.709 261.668H20.562V259.455H17.2459V272H20.7253V264.747ZM37.2219 272.245C41.028 272.245 43.3966 269.64 43.3966 265.776C43.3966 261.888 41.028 259.291 37.2219 259.291C33.4157 259.291 31.0471 261.888 31.0471 265.776C31.0471 269.64 33.4157 272.245 37.2219 272.245ZM37.2382 269.55C35.4822 269.55 34.5837 267.941 34.5837 265.752C34.5837 263.563 35.4822 261.946 37.2382 261.946C38.9616 261.946 39.86 263.563 39.86 265.752C39.86 267.941 38.9616 269.55 37.2382 269.55ZM47.8193 272H51.4948L53.651 264.11H53.8062L55.9624 272H59.646L63.0519 259.455H59.5399L57.6286 267.835H57.5225L55.4642 259.455H52.0093L49.9838 267.884H49.8694L47.9255 259.455H44.4053L47.8193 272ZM70.2966 272H73.8332V265.09H81.0125V272H84.5409V255.273H81.0125V262.174H73.8332V255.273H70.2966V272ZM93.0597 272.245C96.8659 272.245 99.2345 269.64 99.2345 265.776C99.2345 261.888 96.8659 259.291 93.0597 259.291C89.2536 259.291 86.885 261.888 86.885 265.776C86.885 269.64 89.2536 272.245 93.0597 272.245ZM93.0761 269.55C91.32 269.55 90.4216 267.941 90.4216 265.752C90.4216 263.563 91.32 261.946 93.0761 261.946C94.7995 261.946 95.6979 263.563 95.6979 265.752C95.6979 267.941 94.7995 269.55 93.0761 269.55ZM103.657 272H107.333L109.489 264.11H109.644L111.8 272H115.484L118.89 259.455H115.378L113.467 267.835H113.36L111.302 259.455H107.847L105.822 267.884H105.707L103.763 259.455H100.243L103.657 272ZM129.9 272H133.347L136.524 261.064H136.654L139.84 272H143.286L148.073 255.273H144.209L141.441 266.92H141.294L138.247 255.273H134.939L131.884 266.895H131.746L128.977 255.273H125.114L129.9 272ZM154.27 272.245C157.374 272.245 159.464 270.734 159.955 268.406L156.737 268.194C156.385 269.15 155.487 269.648 154.327 269.648C152.587 269.648 151.485 268.496 151.485 266.626V266.618H160.028V265.662C160.028 261.398 157.447 259.291 154.131 259.291C150.439 259.291 148.046 261.913 148.046 265.784C148.046 269.762 150.407 272.245 154.27 272.245ZM151.485 264.461C151.558 263.032 152.645 261.888 154.188 261.888C155.699 261.888 156.745 262.967 156.753 264.461H151.485ZM178.044 255.273V266.209C178.044 267.998 176.598 269.084 174.622 269.084C172.669 269.084 171.224 267.998 171.224 266.209V255.273H167.687V266.332C167.687 270.121 170.562 272.237 174.622 272.237C178.665 272.237 181.556 270.121 181.556 266.332V255.273H178.044ZM194.838 263.032C194.528 260.721 192.666 259.291 189.497 259.291C186.287 259.291 184.172 260.778 184.18 263.195C184.172 265.074 185.356 266.291 187.806 266.781L189.979 267.214C191.073 267.434 191.571 267.835 191.588 268.463C191.571 269.207 190.763 269.738 189.546 269.738C188.304 269.738 187.479 269.207 187.267 268.186L183.845 268.365C184.172 270.767 186.213 272.245 189.538 272.245C192.788 272.245 195.116 270.587 195.124 268.112C195.116 266.299 193.932 265.213 191.498 264.714L189.227 264.257C188.059 264.004 187.626 263.604 187.635 262.999C187.626 262.248 188.476 261.758 189.554 261.758C190.763 261.758 191.482 262.419 191.653 263.228L194.838 263.032ZM203.033 272.245C206.136 272.245 208.227 270.734 208.717 268.406L205.499 268.194C205.148 269.15 204.25 269.648 203.09 269.648C201.35 269.648 200.247 268.496 200.247 266.626V266.618H208.791V265.662C208.791 261.398 206.21 259.291 202.894 259.291C199.202 259.291 196.809 261.913 196.809 265.784C196.809 269.762 199.169 272.245 203.033 272.245ZM200.247 264.461C200.321 263.032 201.407 261.888 202.951 261.888C204.462 261.888 205.507 262.967 205.516 264.461H200.247ZM223.058 259.455H220.697V256.449H217.218V259.455H215.502V262.068H217.218V268.602C217.201 271.061 218.876 272.278 221.4 272.172C222.298 272.139 222.935 271.959 223.286 271.845L222.739 269.256C222.567 269.288 222.2 269.37 221.873 269.37C221.179 269.37 220.697 269.109 220.697 268.145V262.068H223.058V259.455ZM229.073 264.747C229.081 263.13 230.069 262.183 231.491 262.183C232.904 262.183 233.737 263.089 233.729 264.633V272H237.208V264.012C237.216 261.072 235.485 259.291 232.871 259.291C230.968 259.291 229.694 260.19 229.122 261.668H228.975V255.273H225.594V272H229.073V264.747ZM245.663 272.245C248.767 272.245 250.858 270.734 251.348 268.406L248.13 268.194C247.779 269.15 246.88 269.648 245.721 269.648C243.981 269.648 242.878 268.496 242.878 266.626V266.618H251.422V265.662C251.422 261.398 248.841 259.291 245.525 259.291C241.833 259.291 239.44 261.913 239.44 265.784C239.44 269.762 241.8 272.245 245.663 272.245ZM242.878 264.461C242.952 263.032 244.038 261.888 245.582 261.888C247.093 261.888 248.138 262.967 248.146 264.461H242.878ZM265.01 272C270.107 272 273.194 268.847 273.194 263.62C273.194 258.409 270.107 255.273 265.059 255.273H259.081V272H265.01ZM262.617 268.97V258.303H264.872C268.008 258.303 269.666 259.904 269.666 263.62C269.666 267.353 268.008 268.97 264.863 268.97H262.617ZM279.326 272.237C281.18 272.237 282.381 271.428 282.994 270.26H283.092V272H286.391V263.538C286.391 260.549 283.859 259.291 281.066 259.291C278.06 259.291 276.084 260.729 275.602 263.016L278.82 263.277C279.057 262.444 279.8 261.831 281.05 261.831C282.234 261.831 282.912 262.428 282.912 263.457V263.506C282.912 264.314 282.054 264.42 279.873 264.633C277.391 264.862 275.161 265.695 275.161 268.496C275.161 270.979 276.933 272.237 279.326 272.237ZM280.323 269.836C279.253 269.836 278.485 269.337 278.485 268.382C278.485 267.402 279.294 266.92 280.519 266.748C281.278 266.642 282.52 266.462 282.936 266.185V267.516C282.936 268.831 281.85 269.836 280.323 269.836ZM295.764 259.455H293.403V256.449H289.924V259.455H288.209V262.068H289.924V268.602C289.907 271.061 291.582 272.278 294.106 272.172C295.004 272.139 295.641 271.959 295.992 271.845L295.445 269.256C295.274 269.288 294.906 269.37 294.579 269.37C293.885 269.37 293.403 269.109 293.403 268.145V262.068H295.764V259.455ZM301.608 272.237C303.462 272.237 304.662 271.428 305.275 270.26H305.373V272H308.672V263.538C308.672 260.549 306.141 259.291 303.347 259.291C300.342 259.291 298.365 260.729 297.883 263.016L301.101 263.277C301.338 262.444 302.081 261.831 303.331 261.831C304.515 261.831 305.193 262.428 305.193 263.457V263.506C305.193 264.314 304.335 264.42 302.155 264.633C299.672 264.862 297.442 265.695 297.442 268.496C297.442 270.979 299.214 272.237 301.608 272.237ZM302.604 269.836C301.534 269.836 300.766 269.337 300.766 268.382C300.766 267.402 301.575 266.92 302.8 266.748C303.56 266.642 304.801 266.462 305.218 266.185V267.516C305.218 268.831 304.131 269.836 302.604 269.836Z" fill="#FAFAFA"/>
</svg>
