<svg width="400" height="400" viewBox="0 0 400 400" fill="none" xmlns="http://www.w3.org/2000/svg">
<g clip-path="url(#clip0)">
<rect width="400" height="400" fill="white"/>
<g clip-path="url(#clip1)">
<path d="M216.23 141.94H70.23C69.5507 141.94 69 142.491 69 143.17V143.93C69 144.609 69.5507 145.16 70.23 145.16H216.23C216.909 145.16 217.46 144.609 217.46 143.93V143.17C217.46 142.491 216.909 141.94 216.23 141.94Z" fill="#D8D8D8"/>
<path d="M131.9 78H123.03C121.616 78 120.47 79.1462 120.47 80.56V139.38C120.47 140.794 121.616 141.94 123.03 141.94H131.9C133.314 141.94 134.46 140.794 134.46 139.38V80.56C134.46 79.1462 133.314 78 131.9 78Z" fill="#969696"/>
<path d="M139.33 92.99H136.59C135.414 92.99 134.46 93.9436 134.46 95.12V139.81C134.46 140.986 135.414 141.94 136.59 141.94H139.33C140.506 141.94 141.46 140.986 141.46 139.81V95.12C141.46 93.9436 140.506 92.99 139.33 92.99Z" fill="#D8D8D8"/>
<path d="M146.4 92.99H143.52C142.382 92.99 141.46 93.9123 141.46 95.05V139.88C141.46 141.018 142.382 141.94 143.52 141.94H146.4C147.538 141.94 148.46 141.018 148.46 139.88V95.05C148.46 93.9123 147.538 92.99 146.4 92.99Z" fill="#969696"/>
<path d="M151.482 96.5208L149.119 97.6056C148.015 98.1126 147.531 99.4187 148.038 100.523L166.625 141.01C167.132 142.114 168.438 142.598 169.543 142.091L171.905 141.007C173.01 140.5 173.494 139.194 172.987 138.089L154.399 97.6023C153.892 96.4981 152.586 96.0139 151.482 96.5208Z" fill="#D8D8D8"/>
<path d="M127.46 125.76C129.619 125.76 131.37 124.009 131.37 121.85C131.37 119.691 129.619 117.94 127.46 117.94C125.301 117.94 123.55 119.691 123.55 121.85C123.55 124.009 125.301 125.76 127.46 125.76Z" fill="#D8D8D8"/>
<path d="M131.01 128.09H123.93C123.411 128.09 122.99 128.511 122.99 129.03C122.99 129.549 123.411 129.97 123.93 129.97H131.01C131.529 129.97 131.95 129.549 131.95 129.03C131.95 128.511 131.529 128.09 131.01 128.09Z" fill="#D8D8D8"/>
<path d="M131.01 132.91H123.93C123.411 132.91 122.99 133.331 122.99 133.85C122.99 134.369 123.411 134.79 123.93 134.79H131.01C131.529 134.79 131.95 134.369 131.95 133.85C131.95 133.331 131.529 132.91 131.01 132.91Z" fill="#D8D8D8"/>
<path d="M138.69 100.38C138.69 99.9768 138.363 99.65 137.96 99.65C137.557 99.65 137.23 99.9768 137.23 100.38V134.54C137.23 134.943 137.557 135.27 137.96 135.27C138.363 135.27 138.69 134.943 138.69 134.54V100.38Z" fill="#969696"/>
<path d="M107.98 143.55H101.72C100.345 143.55 99.23 144.665 99.23 146.04C99.23 147.415 100.345 148.53 101.72 148.53H107.98C109.355 148.53 110.47 147.415 110.47 146.04C110.47 144.665 109.355 143.55 107.98 143.55Z" fill="#D8D8D8"/>
<path d="M184.74 143.55H178.48C177.105 143.55 175.99 144.665 175.99 146.04C175.99 147.415 177.105 148.53 178.48 148.53H184.74C186.115 148.53 187.23 147.415 187.23 146.04C187.23 144.665 186.115 143.55 184.74 143.55Z" fill="#D8D8D8"/>
</g>
<g clip-path="url(#clip2)">
<path d="M319.23 142.94H173.23C172.551 142.94 172 143.491 172 144.17V144.93C172 145.609 172.551 146.16 173.23 146.16H319.23C319.909 146.16 320.46 145.609 320.46 144.93V144.17C320.46 143.491 319.909 142.94 319.23 142.94Z" fill="#D8D8D8"/>
<path d="M234.9 79H226.03C224.616 79 223.47 80.1462 223.47 81.56V140.38C223.47 141.794 224.616 142.94 226.03 142.94H234.9C236.314 142.94 237.46 141.794 237.46 140.38V81.56C237.46 80.1462 236.314 79 234.9 79Z" fill="#969696"/>
<path d="M242.33 93.99H239.59C238.414 93.99 237.46 94.9436 237.46 96.12V140.81C237.46 141.986 238.414 142.94 239.59 142.94H242.33C243.506 142.94 244.46 141.986 244.46 140.81V96.12C244.46 94.9436 243.506 93.99 242.33 93.99Z" fill="#D8D8D8"/>
<path d="M249.4 93.99H246.52C245.382 93.99 244.46 94.9123 244.46 96.05V140.88C244.46 142.018 245.382 142.94 246.52 142.94H249.4C250.538 142.94 251.46 142.018 251.46 140.88V96.05C251.46 94.9123 250.538 93.99 249.4 93.99Z" fill="#969696"/>
<path d="M254.482 97.5208L252.119 98.6056C251.015 99.1126 250.531 100.419 251.038 101.523L269.625 142.01C270.132 143.114 271.438 143.598 272.543 143.091L274.905 142.007C276.01 141.5 276.494 140.194 275.987 139.089L257.399 98.6023C256.892 97.4981 255.586 97.0139 254.482 97.5208Z" fill="#D8D8D8"/>
<path d="M230.46 126.76C232.619 126.76 234.37 125.009 234.37 122.85C234.37 120.691 232.619 118.94 230.46 118.94C228.301 118.94 226.55 120.691 226.55 122.85C226.55 125.009 228.301 126.76 230.46 126.76Z" fill="#D8D8D8"/>
<path d="M234.01 129.09H226.93C226.411 129.09 225.99 129.511 225.99 130.03C225.99 130.549 226.411 130.97 226.93 130.97H234.01C234.529 130.97 234.95 130.549 234.95 130.03C234.95 129.511 234.529 129.09 234.01 129.09Z" fill="#D8D8D8"/>
<path d="M234.01 133.91H226.93C226.411 133.91 225.99 134.331 225.99 134.85C225.99 135.369 226.411 135.79 226.93 135.79H234.01C234.529 135.79 234.95 135.369 234.95 134.85C234.95 134.331 234.529 133.91 234.01 133.91Z" fill="#D8D8D8"/>
<path d="M241.69 101.38C241.69 100.977 241.363 100.65 240.96 100.65C240.557 100.65 240.23 100.977 240.23 101.38V135.54C240.23 135.943 240.557 136.27 240.96 136.27C241.363 136.27 241.69 135.943 241.69 135.54V101.38Z" fill="#969696"/>
<path d="M210.98 144.55H204.72C203.345 144.55 202.23 145.665 202.23 147.04C202.23 148.415 203.345 149.53 204.72 149.53H210.98C212.355 149.53 213.47 148.415 213.47 147.04C213.47 145.665 212.355 144.55 210.98 144.55Z" fill="#D8D8D8"/>
<path d="M287.74 144.55H281.48C280.105 144.55 278.99 145.665 278.99 147.04C278.99 148.415 280.105 149.53 281.48 149.53H287.74C289.115 149.53 290.23 148.415 290.23 147.04C290.23 145.665 289.115 144.55 287.74 144.55Z" fill="#D8D8D8"/>
</g>
<g clip-path="url(#clip3)">
<path d="M422.23 143.94H276.23C275.551 143.94 275 144.491 275 145.17V145.93C275 146.609 275.551 147.16 276.23 147.16H422.23C422.909 147.16 423.46 146.609 423.46 145.93V145.17C423.46 144.491 422.909 143.94 422.23 143.94Z" fill="#D8D8D8"/>
<path d="M337.9 80H329.03C327.616 80 326.47 81.1462 326.47 82.56V141.38C326.47 142.794 327.616 143.94 329.03 143.94H337.9C339.314 143.94 340.46 142.794 340.46 141.38V82.56C340.46 81.1462 339.314 80 337.9 80Z" fill="#969696"/>
<path d="M345.33 94.99H342.59C341.414 94.99 340.46 95.9436 340.46 97.12V141.81C340.46 142.986 341.414 143.94 342.59 143.94H345.33C346.506 143.94 347.46 142.986 347.46 141.81V97.12C347.46 95.9436 346.506 94.99 345.33 94.99Z" fill="#D8D8D8"/>
<path d="M352.4 94.99H349.52C348.382 94.99 347.46 95.9123 347.46 97.05V141.88C347.46 143.018 348.382 143.94 349.52 143.94H352.4C353.538 143.94 354.46 143.018 354.46 141.88V97.05C354.46 95.9123 353.538 94.99 352.4 94.99Z" fill="#969696"/>
<path d="M357.482 98.5208L355.119 99.6056C354.015 100.113 353.531 101.419 354.038 102.523L372.625 143.01C373.132 144.114 374.438 144.598 375.543 144.091L377.905 143.007C379.01 142.5 379.494 141.194 378.987 140.089L360.399 99.6023C359.892 98.4981 358.586 98.0139 357.482 98.5208Z" fill="#D8D8D8"/>
<path d="M333.46 127.76C335.619 127.76 337.37 126.009 337.37 123.85C337.37 121.691 335.619 119.94 333.46 119.94C331.301 119.94 329.55 121.691 329.55 123.85C329.55 126.009 331.301 127.76 333.46 127.76Z" fill="#D8D8D8"/>
<path d="M337.01 130.09H329.93C329.411 130.09 328.99 130.511 328.99 131.03C328.99 131.549 329.411 131.97 329.93 131.97H337.01C337.529 131.97 337.95 131.549 337.95 131.03C337.95 130.511 337.529 130.09 337.01 130.09Z" fill="#D8D8D8"/>
<path d="M337.01 134.91H329.93C329.411 134.91 328.99 135.331 328.99 135.85C328.99 136.369 329.411 136.79 329.93 136.79H337.01C337.529 136.79 337.95 136.369 337.95 135.85C337.95 135.331 337.529 134.91 337.01 134.91Z" fill="#D8D8D8"/>
<path d="M344.69 102.38C344.69 101.977 344.363 101.65 343.96 101.65C343.557 101.65 343.23 101.977 343.23 102.38V136.54C343.23 136.943 343.557 137.27 343.96 137.27C344.363 137.27 344.69 136.943 344.69 136.54V102.38Z" fill="#969696"/>
<path d="M313.98 145.55H307.72C306.345 145.55 305.23 146.665 305.23 148.04C305.23 149.415 306.345 150.53 307.72 150.53H313.98C315.355 150.53 316.47 149.415 316.47 148.04C316.47 146.665 315.355 145.55 313.98 145.55Z" fill="#D8D8D8"/>
<path d="M390.74 145.55H384.48C383.105 145.55 381.99 146.665 381.99 148.04C381.99 149.415 383.105 150.53 384.48 150.53H390.74C392.115 150.53 393.23 149.415 393.23 148.04C393.23 146.665 392.115 145.55 390.74 145.55Z" fill="#D8D8D8"/>
</g>
<g clip-path="url(#clip4)">
<path d="M113.23 140.94H-32.77C-33.4493 140.94 -34 141.491 -34 142.17V142.93C-34 143.609 -33.4493 144.16 -32.77 144.16H113.23C113.909 144.16 114.46 143.609 114.46 142.93V142.17C114.46 141.491 113.909 140.94 113.23 140.94Z" fill="#D8D8D8"/>
<path d="M28.9 77H20.03C18.6161 77 17.47 78.1462 17.47 79.56V138.38C17.47 139.794 18.6161 140.94 20.03 140.94H28.9C30.3139 140.94 31.46 139.794 31.46 138.38V79.56C31.46 78.1462 30.3139 77 28.9 77Z" fill="#969696"/>
<path d="M36.33 91.99H33.59C32.4136 91.99 31.46 92.9436 31.46 94.12V138.81C31.46 139.986 32.4136 140.94 33.59 140.94H36.33C37.5064 140.94 38.46 139.986 38.46 138.81V94.12C38.46 92.9436 37.5064 91.99 36.33 91.99Z" fill="#D8D8D8"/>
<path d="M43.4 91.99H40.52C39.3823 91.99 38.46 92.9123 38.46 94.05V138.88C38.46 140.018 39.3823 140.94 40.52 140.94H43.4C44.5377 140.94 45.46 140.018 45.46 138.88V94.05C45.46 92.9123 44.5377 91.99 43.4 91.99Z" fill="#969696"/>
<path d="M48.4819 95.5208L46.119 96.6056C45.0148 97.1126 44.5306 98.4187 45.0376 99.5229L63.6253 140.01C64.1322 141.114 65.4383 141.598 66.5426 141.091L68.9054 140.007C70.0097 139.5 70.4938 138.194 69.9869 137.089L51.3992 96.6023C50.8922 95.4981 49.5861 95.0139 48.4819 95.5208Z" fill="#D8D8D8"/>
<path d="M24.46 124.76C26.6194 124.76 28.37 123.009 28.37 120.85C28.37 118.691 26.6194 116.94 24.46 116.94C22.3006 116.94 20.55 118.691 20.55 120.85C20.55 123.009 22.3006 124.76 24.46 124.76Z" fill="#D8D8D8"/>
<path d="M28.01 127.09H20.93C20.4109 127.09 19.99 127.511 19.99 128.03C19.99 128.549 20.4109 128.97 20.93 128.97H28.01C28.5292 128.97 28.95 128.549 28.95 128.03C28.95 127.511 28.5292 127.09 28.01 127.09Z" fill="#D8D8D8"/>
<path d="M28.01 131.91H20.93C20.4109 131.91 19.99 132.331 19.99 132.85C19.99 133.369 20.4109 133.79 20.93 133.79H28.01C28.5292 133.79 28.95 133.369 28.95 132.85C28.95 132.331 28.5292 131.91 28.01 131.91Z" fill="#D8D8D8"/>
<path d="M35.69 99.38C35.69 98.9768 35.3632 98.65 34.96 98.65C34.5568 98.65 34.23 98.9768 34.23 99.38V133.54C34.23 133.943 34.5568 134.27 34.96 134.27C35.3632 134.27 35.69 133.943 35.69 133.54V99.38Z" fill="#969696"/>
<path d="M4.98 142.55H-1.28C-2.65519 142.55 -3.77 143.665 -3.77 145.04C-3.77 146.415 -2.65519 147.53 -1.28 147.53H4.98C6.35518 147.53 7.47 146.415 7.47 145.04C7.47 143.665 6.35518 142.55 4.98 142.55Z" fill="#D8D8D8"/>
<path d="M81.74 142.55H75.48C74.1048 142.55 72.99 143.665 72.99 145.04C72.99 146.415 74.1048 147.53 75.48 147.53H81.74C83.1152 147.53 84.23 146.415 84.23 145.04C84.23 143.665 83.1152 142.55 81.74 142.55Z" fill="#D8D8D8"/>
</g>
<g clip-path="url(#clip5)">
<path d="M120.425 105.288H67V142H120.425V105.288Z" fill="#B27363"/>
<path d="M120.425 105.288H67L76.726 97H110.699L120.425 105.288Z" fill="#98574C"/>
<path d="M99.3973 111.521H88.0274C87.233 111.521 86.5891 112.165 86.5891 112.959C86.5891 113.753 87.233 114.397 88.0274 114.397H99.3973C100.192 114.397 100.836 113.753 100.836 112.959C100.836 112.165 100.192 111.521 99.3973 111.521Z" fill="#98574C"/>
<path d="M93.7808 97V105.493" stroke="#B27363" stroke-width="20" stroke-miterlimit="10"/>
<path d="M97.274 136.041H90.1507V141.932H97.274V136.041Z" fill="#98574C"/>
<path d="M107.068 122.205H80.3562V129.603H107.068V122.205Z" fill="#FADB93"/>
<path d="M83.5068 124.705H103.918" stroke="#B27363" stroke-width="9" stroke-miterlimit="10"/>
<path d="M83.5068 127.103H103.918" stroke="#B27363" stroke-width="9" stroke-miterlimit="10"/>
</g>
<g clip-path="url(#clip6)">
<path d="M223.425 105.288H170V142H223.425V105.288Z" fill="#B27363"/>
<path d="M223.425 105.288H170L179.726 97H213.699L223.425 105.288Z" fill="#98574C"/>
<path d="M202.397 111.521H191.027C190.233 111.521 189.589 112.165 189.589 112.959C189.589 113.753 190.233 114.397 191.027 114.397H202.397C203.192 114.397 203.836 113.753 203.836 112.959C203.836 112.165 203.192 111.521 202.397 111.521Z" fill="#98574C"/>
<path d="M196.781 97V105.493" stroke="#B27363" stroke-width="20" stroke-miterlimit="10"/>
<path d="M200.274 136.041H193.151V141.932H200.274V136.041Z" fill="#98574C"/>
<path d="M210.068 122.205H183.356V129.603H210.068V122.205Z" fill="#FADB93"/>
<path d="M186.507 124.705H206.918" stroke="#B27363" stroke-width="9" stroke-miterlimit="10"/>
<path d="M186.507 127.103H206.918" stroke="#B27363" stroke-width="9" stroke-miterlimit="10"/>
</g>
<g clip-path="url(#clip7)">
<path d="M326.425 105.288H273V142H326.425V105.288Z" fill="#B27363"/>
<path d="M326.425 105.288H273L282.726 97H316.699L326.425 105.288Z" fill="#98574C"/>
<path d="M305.397 111.521H294.027C293.233 111.521 292.589 112.165 292.589 112.959C292.589 113.753 293.233 114.397 294.027 114.397H305.397C306.192 114.397 306.836 113.753 306.836 112.959C306.836 112.165 306.192 111.521 305.397 111.521Z" fill="#98574C"/>
<path d="M299.781 97V105.493" stroke="#B27363" stroke-width="20" stroke-miterlimit="10"/>
<path d="M303.274 136.041H296.151V141.932H303.274V136.041Z" fill="#98574C"/>
<path d="M313.068 122.205H286.356V129.603H313.068V122.205Z" fill="#FADB93"/>
<path d="M289.507 124.705H309.918" stroke="#B27363" stroke-width="9" stroke-miterlimit="10"/>
<path d="M289.507 127.103H309.918" stroke="#B27363" stroke-width="9" stroke-miterlimit="10"/>
</g>
<g clip-path="url(#clip8)">
<path d="M429.425 105.288H376V142H429.425V105.288Z" fill="#B27363"/>
<path d="M429.425 105.288H376L385.726 97H419.699L429.425 105.288Z" fill="#98574C"/>
<path d="M408.397 111.521H397.027C396.233 111.521 395.589 112.165 395.589 112.959C395.589 113.753 396.233 114.397 397.027 114.397H408.397C409.192 114.397 409.836 113.753 409.836 112.959C409.836 112.165 409.192 111.521 408.397 111.521Z" fill="#98574C"/>
<path d="M402.781 97V105.493" stroke="#B27363" stroke-width="20" stroke-miterlimit="10"/>
<path d="M406.274 136.041H399.151V141.932H406.274V136.041Z" fill="#98574C"/>
<path d="M416.068 122.205H389.356V129.603H416.068V122.205Z" fill="#FADB93"/>
<path d="M392.507 124.705H412.918" stroke="#B27363" stroke-width="9" stroke-miterlimit="10"/>
<path d="M392.507 127.103H412.918" stroke="#B27363" stroke-width="9" stroke-miterlimit="10"/>
</g>
<g clip-path="url(#clip9)">
<path d="M325.675 378.828C325.734 379.797 326.33 385.471 325.577 386.473C324.195 388.288 312.12 388.197 311.523 387.672C310.927 387.148 310.521 385.982 311.006 385.615C311.491 385.248 316.214 383.99 316.83 383.505C317.446 383.021 318.206 380.577 317.793 379.312" fill="#1F161E"/>
<path d="M265.831 222.089C263.774 226.754 246.497 277.576 246.896 284.986C247.296 292.396 287.275 368.751 289.483 369.557C291.691 370.363 300.864 367.545 301.604 365.54C302.344 363.536 287.675 317.968 287.275 306.299" fill="#1F161E"/>
<path d="M265.831 222.089C266.866 227.586 284.058 303.39 284.058 303.39L315.579 379.725C318.2 381.003 325.911 381.14 327.261 380.734C328.61 380.328 322.131 307.229 319.569 296.871C317.007 286.513 310.265 214.6 310.265 214.6C310.265 214.6 274.951 215.183 265.831 222.089Z" fill="#55B79D"/>
<path d="M274.348 140.984C269.146 143.415 235.975 159.736 233.125 159.736C230.275 159.736 199.953 142.603 198.171 141.45C196.474 143.146 193.886 145.82 194.515 146.691C195.144 147.562 229.914 180.053 232.863 180.053C235.811 180.053 265.674 170.965 267.993 168.469" fill="#73E5E2"/>
<path d="M285.604 137.44C255.794 132.552 262.896 218.82 265.831 222.089C268.766 225.358 308.975 217.503 311.589 214.41C314.203 211.318 306.524 138.259 285.604 137.44Z" fill="#73E5E2"/>
<path d="M299.855 366.084C300.208 366.982 302.515 372.204 302.089 373.389C301.322 375.538 289.804 379.129 289.077 378.808C288.35 378.487 287.603 377.497 287.95 377.006C288.297 376.515 292.418 373.881 292.864 373.226C293.309 372.57 293.283 370.022 292.497 368.941" fill="#1F161E"/>
<path d="M280.356 141.934C280.356 143.992 289.529 144.149 289.529 141.934V128.176H280.356V141.934Z" fill="#F8CDBA"/>
<path d="M289.536 134.813C289.536 133.823 286.161 128.438 284.412 129.014C286.568 128.248 288.743 127.619 289.536 128.149V134.813Z" fill="black"/>
<path d="M283.462 129.512C290.044 129.512 295.38 124.176 295.38 117.594C295.38 111.012 290.044 105.677 283.462 105.677C276.88 105.677 271.544 111.012 271.544 117.594C271.544 124.176 276.88 129.512 283.462 129.512Z" fill="#F8CDBA"/>
<path d="M271.413 120.228C272.513 120.228 273.405 119.765 273.405 119.193C273.405 118.621 272.513 118.158 271.413 118.158C270.313 118.158 269.422 118.621 269.422 119.193C269.422 119.765 270.313 120.228 271.413 120.228Z" fill="#FA9E9F"/>
<path d="M283.914 120.228C285.014 120.228 285.906 119.765 285.906 119.193C285.906 118.621 285.014 118.158 283.914 118.158C282.814 118.158 281.922 118.621 281.922 119.193C281.922 119.765 282.814 120.228 283.914 120.228Z" fill="#FA9E9F"/>
<path d="M276.268 117.044C275.895 117.575 273.982 119.802 276 120.707" stroke="#1F161E" stroke-width="0.69" stroke-miterlimit="10" stroke-linecap="round"/>
<path d="M280.035 123.308C280.839 123.09 281.537 122.59 282.001 121.899" stroke="#1F161E" stroke-width="0.69" stroke-miterlimit="10" stroke-linecap="round"/>
<path d="M290.735 120.785C292.185 120.785 293.362 119.609 293.362 118.158C293.362 116.707 292.185 115.531 290.735 115.531C289.284 115.531 288.107 116.707 288.107 118.158C288.107 119.609 289.284 120.785 290.735 120.785Z" fill="#F8CDBA"/>
<path d="M311.039 217.817C324.254 217.457 333.747 208.206 333.747 184.403C333.747 174.575 317.407 144.987 314.164 133.81C312.486 128.038 313.836 111.056 305.273 102.414C301.145 98.2536 282.997 99.2363 278.312 101.195C273.628 103.154 274.178 109.057 274.656 109.981C275.777 109.038 278.234 107.125 278.673 107.184C280.972 107.465 287.249 114.528 289.156 117.771C290.702 120.392 288.317 136.667 291.337 141.318C294.358 145.97 305.05 143.526 305.05 143.526" fill="#1F161E"/>
<path d="M285.709 172.099C287.537 174.385 301.034 198.738 301.034 202.401C301.034 206.063 297.031 232.021 296.231 233.279C298.059 234.649 302.862 238.423 302.862 238.423C302.862 238.423 317.499 212.576 317.499 198.057C317.499 192.907 305.836 151.054 294.626 141.45" fill="#73E5E2"/>
<path d="M285.709 172.099C287.537 174.385 301.034 198.738 301.034 202.401C301.034 204.216 300.045 211.514 298.957 218.564" stroke="#1F161E" stroke-linecap="round" stroke-linejoin="round"/>
<path d="M290.132 137.401C289.575 142.236 303.681 159.107 309.178 164.047C314.668 157.128 311.373 139.988 311.373 139.988L300.169 134.813L290.132 137.401Z" fill="#1F161E"/>
<path d="M302.862 101.654C306.057 101.654 308.647 98.5974 308.647 94.827C308.647 91.0565 306.057 88 302.862 88C299.667 88 297.077 91.0565 297.077 94.827C297.077 98.5974 299.667 101.654 302.862 101.654Z" fill="#1F161E"/>
<path d="M269.356 148.493C266.644 154.448 264.966 162.251 264.01 170.52" stroke="#1F161E" stroke-linecap="round" stroke-linejoin="round"/>
<path d="M192.576 146.435C195.655 146.435 198.151 144.376 198.151 141.836C198.151 139.296 195.655 137.237 192.576 137.237C189.496 137.237 187 139.296 187 141.836C187 144.376 189.496 146.435 192.576 146.435Z" fill="#F8CDBA"/>
</g>
<g clip-path="url(#clip10)">
<path d="M83.1043 264.796C96.7198 267.383 94.2905 348.639 68.1559 343.723C43.476 339.058 66.4934 261.664 83.1043 264.796Z" fill="black"/>
<path d="M23.3251 274.871C34.1601 268.744 79.5141 325.815 58.7684 337.546C39.1692 348.632 10.1323 282.331 23.3251 274.871Z" fill="#FBDC8E"/>
<path d="M78.5396 383H51.1795C50.0775 383 49.0143 382.593 48.1933 381.858C47.3723 381.123 46.8511 380.111 46.7294 379.016L43.2754 347.994C43.2058 347.368 43.2691 346.734 43.461 346.134C43.6529 345.535 43.9692 344.982 44.3891 344.513C44.8091 344.043 45.3233 343.668 45.8982 343.411C46.4731 343.154 47.0957 343.021 47.7255 343.021H81.8503C82.4784 343.02 83.0995 343.152 83.6733 343.407C84.2471 343.663 84.7607 344.036 85.1805 344.503C85.6003 344.97 85.9171 345.521 86.11 346.118C86.303 346.716 86.3678 347.348 86.3004 347.972L82.9968 378.994C82.8785 380.094 82.3579 381.111 81.5352 381.851C80.7125 382.59 79.6457 382.999 78.5396 383V383Z" fill="#969696"/>
<path d="M90.7935 233.165C101.163 236.182 93.2156 298.928 73.3585 293.13C54.6121 287.677 78.1741 229.496 90.7935 233.165Z" fill="#AB8DE5"/>
<path d="M107.892 283.069C115.058 289.254 85.9063 336.499 72.1331 324.632C59.1267 313.475 99.142 275.545 107.892 283.069Z" fill="#FBDC8E"/>
<path d="M64.9312 239.693C80.4529 239.693 94.6632 338.793 64.9312 338.793C36.8546 338.793 46.0343 239.693 64.9312 239.693Z" fill="#78E5E1"/>
<path d="M92.1694 336.277H37.564C35.9612 336.277 34.6618 337.577 34.6618 339.18V344.468C34.6618 346.071 35.9612 347.37 37.564 347.37H92.1694C93.7723 347.37 95.0717 346.071 95.0717 344.468V339.18C95.0717 337.577 93.7723 336.277 92.1694 336.277Z" fill="#D8D8D8"/>
</g>
<path d="M176.405 240L154.81 223.319H176.837L176.405 240Z" fill="#73E5E2"/>
<path d="M60.7721 225.207L168.228 225.207C184.671 225.207 198 213.551 198 199.172V187.035C198 172.656 184.671 161 168.228 161H60.7721C44.3294 161 31 172.656 31 187.035V199.172C31 213.551 44.3294 225.207 60.7721 225.207Z" fill="#73E5E2"/>
<path d="M50.7784 192.636C50.7784 189.781 49.0057 188.153 46.6918 188.153C44.3651 188.153 42.6051 189.781 42.6051 192.636C42.6051 195.479 44.3651 197.119 46.6918 197.119C49.0057 197.119 50.7784 195.491 50.7784 192.636ZM48.9077 192.636C48.9077 194.486 48.0298 195.487 46.6918 195.487C45.3494 195.487 44.4759 194.486 44.4759 192.636C44.4759 190.787 45.3494 189.786 46.6918 189.786C48.0298 189.786 48.9077 190.787 48.9077 192.636ZM55.0685 197.128C57.0543 197.128 58.2901 195.768 58.2901 193.753C58.2901 191.724 57.0543 190.369 55.0685 190.369C53.0827 190.369 51.8469 191.724 51.8469 193.753C51.8469 195.768 53.0827 197.128 55.0685 197.128ZM55.0771 195.722C54.1609 195.722 53.6921 194.882 53.6921 193.74C53.6921 192.598 54.1609 191.754 55.0771 191.754C55.9762 191.754 56.445 192.598 56.445 193.74C56.445 194.882 55.9762 195.722 55.0771 195.722ZM59.4705 199.455H61.2859V195.952H61.3413C61.5927 196.497 62.1424 197.107 63.1992 197.107C64.6907 197.107 65.854 195.926 65.854 193.736C65.854 191.486 64.6396 190.369 63.2035 190.369C62.1083 190.369 61.5842 191.021 61.3413 191.554H61.2603V190.455H59.4705V199.455ZM61.2475 193.727C61.2475 192.56 61.7418 191.814 62.6239 191.814C63.5231 191.814 64.0004 192.594 64.0004 193.727C64.0004 194.869 63.5146 195.662 62.6239 195.662C61.7504 195.662 61.2475 194.895 61.2475 193.727ZM72.5103 192.321C72.3484 191.115 71.3768 190.369 69.7234 190.369C68.0487 190.369 66.945 191.145 66.9492 192.406C66.945 193.386 67.5629 194.021 68.8413 194.277L69.9748 194.503C70.5458 194.618 70.8058 194.827 70.8143 195.155C70.8058 195.543 70.3839 195.82 69.7489 195.82C69.1012 195.82 68.6708 195.543 68.56 195.01L66.7745 195.104C66.945 196.357 68.0103 197.128 69.7447 197.128C71.4407 197.128 72.6552 196.263 72.6594 194.972C72.6552 194.026 72.0373 193.459 70.7674 193.199L69.5827 192.96C68.9734 192.828 68.7475 192.619 68.7518 192.304C68.7475 191.912 69.1907 191.656 69.7532 191.656C70.3839 191.656 70.7589 192.001 70.8484 192.423L72.5103 192.321ZM75.7756 195.807H74.2756L74.2543 196.284C74.2031 197.443 73.8707 198.632 73.7472 199.131H74.9233C75.1278 198.615 75.6136 197.405 75.7287 196.276L75.7756 195.807ZM87.1364 188.273H85.2997V193.761H85.223L81.456 188.273H79.8366V197H81.6818V191.507H81.7457L85.5426 197H87.1364V188.273ZM91.5842 197.128C93.57 197.128 94.8058 195.768 94.8058 193.753C94.8058 191.724 93.57 190.369 91.5842 190.369C89.5984 190.369 88.3626 191.724 88.3626 193.753C88.3626 195.768 89.5984 197.128 91.5842 197.128ZM91.5927 195.722C90.6765 195.722 90.2077 194.882 90.2077 193.74C90.2077 192.598 90.6765 191.754 91.5927 191.754C92.4918 191.754 92.9606 192.598 92.9606 193.74C92.9606 194.882 92.4918 195.722 91.5927 195.722ZM98.7976 197H100.643V193.906H101.989L103.643 197H105.68L103.826 193.608C104.819 193.182 105.369 192.317 105.369 191.124C105.369 189.389 104.222 188.273 102.241 188.273H98.7976V197ZM100.643 192.423V189.781H101.887C102.952 189.781 103.468 190.254 103.468 191.124C103.468 191.989 102.952 192.423 101.896 192.423H100.643ZM109.516 197.128C111.135 197.128 112.226 196.339 112.482 195.125L110.803 195.014C110.62 195.513 110.151 195.773 109.546 195.773C108.638 195.773 108.063 195.172 108.063 194.196V194.192H112.52V193.693C112.52 191.469 111.174 190.369 109.444 190.369C107.517 190.369 106.269 191.737 106.269 193.757C106.269 195.832 107.5 197.128 109.516 197.128ZM108.063 193.067C108.101 192.321 108.668 191.724 109.473 191.724C110.262 191.724 110.807 192.287 110.811 193.067H108.063ZM116.662 197.128C118.405 197.128 119.5 196.105 119.586 194.601H117.873C117.766 195.3 117.306 195.692 116.684 195.692C115.836 195.692 115.286 194.98 115.286 193.727C115.286 192.491 115.84 191.784 116.684 191.784C117.348 191.784 117.775 192.223 117.873 192.875H119.586C119.509 191.362 118.363 190.369 116.654 190.369C114.668 190.369 113.441 191.746 113.441 193.753C113.441 195.743 114.647 197.128 116.662 197.128ZM123.705 197.128C125.691 197.128 126.927 195.768 126.927 193.753C126.927 191.724 125.691 190.369 123.705 190.369C121.719 190.369 120.484 191.724 120.484 193.753C120.484 195.768 121.719 197.128 123.705 197.128ZM123.714 195.722C122.798 195.722 122.329 194.882 122.329 193.74C122.329 192.598 122.798 191.754 123.714 191.754C124.613 191.754 125.082 192.598 125.082 193.74C125.082 194.882 124.613 195.722 123.714 195.722ZM128.107 197H129.923V193.297C129.923 192.491 130.511 191.938 131.312 191.938C131.563 191.938 131.908 191.98 132.079 192.036V190.425C131.917 190.386 131.691 190.361 131.508 190.361C130.775 190.361 130.174 190.787 129.935 191.597H129.867V190.455H128.107V197ZM135.125 197.107C136.181 197.107 136.731 196.497 136.983 195.952H137.059V197H138.849V188.273H137.038V191.554H136.983C136.74 191.021 136.216 190.369 135.12 190.369C133.684 190.369 132.47 191.486 132.47 193.736C132.47 195.926 133.633 197.107 135.125 197.107ZM135.7 195.662C134.809 195.662 134.324 194.869 134.324 193.727C134.324 192.594 134.801 191.814 135.7 191.814C136.582 191.814 137.076 192.56 137.076 193.727C137.076 194.895 136.574 195.662 135.7 195.662ZM145.788 192.321C145.626 191.115 144.654 190.369 143.001 190.369C141.326 190.369 140.222 191.145 140.227 192.406C140.222 193.386 140.84 194.021 142.119 194.277L143.252 194.503C143.823 194.618 144.083 194.827 144.092 195.155C144.083 195.543 143.661 195.82 143.026 195.82C142.379 195.82 141.948 195.543 141.837 195.01L140.052 195.104C140.222 196.357 141.288 197.128 143.022 197.128C144.718 197.128 145.933 196.263 145.937 194.972C145.933 194.026 145.315 193.459 144.045 193.199L142.86 192.96C142.251 192.828 142.025 192.619 142.029 192.304C142.025 191.912 142.468 191.656 143.031 191.656C143.661 191.656 144.036 192.001 144.126 192.423L145.788 192.321ZM149.891 197H151.737V193.395H155.286V191.874H151.737V189.794H155.67V188.273H149.891V197ZM159.354 197.128C161.339 197.128 162.575 195.768 162.575 193.753C162.575 191.724 161.339 190.369 159.354 190.369C157.368 190.369 156.132 191.724 156.132 193.753C156.132 195.768 157.368 197.128 159.354 197.128ZM159.362 195.722C158.446 195.722 157.977 194.882 157.977 193.74C157.977 192.598 158.446 191.754 159.362 191.754C160.261 191.754 160.73 192.598 160.73 193.74C160.73 194.882 160.261 195.722 159.362 195.722ZM167.953 194.213C167.957 195.091 167.357 195.551 166.705 195.551C166.018 195.551 165.575 195.07 165.571 194.298V190.455H163.756V194.622C163.76 196.152 164.655 197.085 165.972 197.085C166.956 197.085 167.663 196.578 167.957 195.811H168.026V197H169.768V190.455H167.953V194.213ZM173.036 193.216C173.04 192.372 173.543 191.878 174.276 191.878C175.005 191.878 175.444 192.355 175.439 193.156V197H177.255V192.832C177.255 191.307 176.36 190.369 174.996 190.369C174.025 190.369 173.321 190.847 173.027 191.609H172.951V190.455H171.221V197H173.036V193.216ZM181.097 197.107C182.154 197.107 182.704 196.497 182.955 195.952H183.032V197H184.822V188.273H183.011V191.554H182.955C182.712 191.021 182.188 190.369 181.093 190.369C179.657 190.369 178.442 191.486 178.442 193.736C178.442 195.926 179.606 197.107 181.097 197.107ZM181.673 195.662C180.782 195.662 180.296 194.869 180.296 193.727C180.296 192.594 180.773 191.814 181.673 191.814C182.555 191.814 183.049 192.56 183.049 193.727C183.049 194.895 182.546 195.662 181.673 195.662Z" fill="white"/>
</g>
<defs>
<clipPath id="clip0">
<rect width="400" height="400" fill="white"/>
</clipPath>
<clipPath id="clip1">
<rect width="148.46" height="70.52" fill="white" transform="translate(69 78)"/>
</clipPath>
<clipPath id="clip2">
<rect width="148.46" height="70.52" fill="white" transform="translate(172 79)"/>
</clipPath>
<clipPath id="clip3">
<rect width="148.46" height="70.52" fill="white" transform="translate(275 80)"/>
</clipPath>
<clipPath id="clip4">
<rect width="148.46" height="70.52" fill="white" transform="translate(-34 77)"/>
</clipPath>
<clipPath id="clip5">
<rect width="53.4247" height="45" fill="white" transform="translate(67 97)"/>
</clipPath>
<clipPath id="clip6">
<rect width="53.4247" height="45" fill="white" transform="translate(170 97)"/>
</clipPath>
<clipPath id="clip7">
<rect width="53.4247" height="45" fill="white" transform="translate(273 97)"/>
</clipPath>
<clipPath id="clip8">
<rect width="53.4247" height="45" fill="white" transform="translate(376 97)"/>
</clipPath>
<clipPath id="clip9">
<rect width="146.747" height="300" fill="white" transform="translate(187 88)"/>
</clipPath>
<clipPath id="clip10">
<rect width="89.0168" height="150" fill="white" transform="translate(20 233)"/>
</clipPath>
</defs>
</svg>
